<svg width="24" height="24" viewBox="0 0 24 24" fill="none" xmlns="http://www.w3.org/2000/svg">
<path d="M14.9 2H9.10001C8.42001 2 7.46 2.4 6.98 2.88L2.88 6.98001C2.4 7.46001 2 8.42001 2 9.10001V14.9C2 15.58 2.4 16.54 2.88 17.02L6.98 21.12C7.46 21.6 8.42001 22 9.10001 22H14.9C15.58 22 16.54 21.6 17.02 21.12L21.12 17.02C21.6 16.54 22 15.58 22 14.9V9.10001C22 8.42001 21.6 7.46001 21.12 6.98001L17.02 2.88C16.54 2.4 15.58 2 14.9 2Z" fill="#d32f2f"/>
<path d="M13.0599 12L16.0299 9.03C16.3199 8.74 16.3199 8.26 16.0299 7.97C15.7399 7.68 15.2599 7.68 14.9699 7.97L11.9999 10.94L9.02994 7.97C8.73994 7.68 8.25994 7.68 7.96994 7.97C7.67994 8.26 7.67994 8.74 7.96994 9.03L10.9399 12L7.96994 14.97C7.67994 15.26 7.67994 15.74 7.96994 16.03C8.11994 16.18 8.30994 16.25 8.49994 16.25C8.68994 16.25 8.87994 16.18 9.02994 16.03L11.9999 13.06L14.9699 16.03C15.1199 16.18 15.3099 16.25 15.4999 16.25C15.6899 16.25 15.8799 16.18 16.0299 16.03C16.3199 15.74 16.3199 15.26 16.0299 14.97L13.0599 12Z" fill="#DFEBE9"/>
</svg>
