<svg width="40" height="40" viewBox="0 0 40 40" fill="none" xmlns="http://www.w3.org/2000/svg">
<path opacity="0.4" d="M15 12V27.9834C15 33.3334 18.3333 36.6667 23.6667 36.6667H27.9833C33.3167 36.6667 36.65 33.3334 36.65 28V12C36.6667 6.66671 33.3333 3.33337 28 3.33337H23.6667C18.3333 3.33337 15 6.66671 15 12Z" fill="#DFEBE9"/>
<path d="M9.28324 13.5333L3.6999 19.1167C3.21657 19.6 3.21657 20.4 3.6999 20.8833L9.28324 26.4667C9.76657 26.95 10.5666 26.95 11.0499 26.4667C11.5332 25.9833 11.5332 25.1833 11.0499 24.7L7.5999 21.25H25.4166C26.0999 21.25 26.6666 20.6833 26.6666 20C26.6666 19.3167 26.0999 18.75 25.4166 18.75H7.5999L11.0499 15.3C11.2999 15.05 11.4166 14.7333 11.4166 14.4167C11.4166 14.1 11.2999 13.7667 11.0499 13.5333C10.5666 13.0333 9.78324 13.0333 9.28324 13.5333Z" fill="#DFEBE9"/>
</svg>
