<svg width="45" height="45" viewBox="0 0 45 45" fill="none" xmlns="http://www.w3.org/2000/svg">
<ellipse cx="22.4911" cy="22.5" rx="22.4911" ry="22.5" fill="#39403E"/>
<path d="M19.9919 33H17.9927C13.9942 33 12.9946 32 12.9946 28V18C12.9946 14 13.9942 13 17.9927 13H19.4921C20.9915 13 21.3214 13.44 21.8911 14.2L23.3905 16.2C23.7704 16.7 23.9903 17 24.9899 17H27.9887C31.9871 17 32.9867 18 32.9867 22V24" stroke="#DFEBE9" stroke-width="1.5" stroke-miterlimit="10" stroke-linecap="round" stroke-linejoin="round"/>
<path opacity="0.4" d="M24.7501 29.32C22.401 29.49 22.401 32.89 24.7501 33.06H30.3079C30.9776 33.06 31.6374 32.81 32.1272 32.36C33.7765 30.92 32.8968 28.04 30.7277 27.77C29.948 23.08 23.1707 24.86 24.7701 29.33" stroke="#DFEBE9" stroke-width="1.5" stroke-miterlimit="10" stroke-linecap="round" stroke-linejoin="round"/>
</svg>
