<svg width="45" height="45" viewBox="0 0 45 45" fill="none" xmlns="http://www.w3.org/2000/svg">
<circle cx="22.5" cy="22.5" r="22.5" fill="#39403E"/>
<path d="M32 15.98C28.67 15.65 25.32 15.48 21.98 15.48C20 15.48 18.02 15.58 16.04 15.78L14 15.98" stroke="#DFEBE9" stroke-width="1.5" stroke-linecap="round" stroke-linejoin="round"/>
<path opacity="0.34" d="M19.5 14.97L19.72 13.66C19.88 12.71 20 12 21.69 12H24.31C26 12 26.13 12.75 26.28 13.67L26.5 14.97" stroke="#DFEBE9" stroke-width="1.5" stroke-linecap="round" stroke-linejoin="round"/>
<path d="M29.8499 19.14L29.1999 29.21C29.0899 30.78 28.9999 32 26.2099 32H19.7899C16.9999 32 16.9099 30.78 16.7999 29.21L16.1499 19.14" stroke="#DFEBE9" stroke-width="1.5" stroke-linecap="round" stroke-linejoin="round"/>
<path opacity="0.34" d="M21.3301 26.5H24.6601" stroke="#DFEBE9" stroke-width="1.5" stroke-linecap="round" stroke-linejoin="round"/>
<path opacity="0.34" d="M20.5 22.5H25.5" stroke="#DFEBE9" stroke-width="1.5" stroke-linecap="round" stroke-linejoin="round"/>
</svg>
