<svg width="21" height="21" viewBox="0 0 21 21" fill="none" xmlns="http://www.w3.org/2000/svg">
<path opacity="0.4" d="M5.02268 14C5.11893 13.5712 4.94393 12.9587 4.63768 12.6525L2.51143 10.5262C1.84643 9.86125 1.58393 9.1525 1.77643 8.54C1.97768 7.9275 2.59893 7.5075 3.52643 7.35L6.25643 6.895C6.65018 6.825 7.13143 6.475 7.31518 6.11625L8.82018 3.0975C9.25768 2.23125 9.85268 1.75 10.5002 1.75C11.1477 1.75 11.7427 2.23125 12.1802 3.0975L13.6852 6.11625C13.7989 6.34375 14.0352 6.5625 14.2889 6.71125L4.86518 16.135C4.74268 16.2575 4.53268 16.1437 4.56768 15.9687L5.02268 14Z" fill="#222222"/>
<path d="M16.3627 12.6524C16.0477 12.9674 15.8727 13.5712 15.9777 13.9999L16.5814 16.6337C16.8352 17.7274 16.6777 18.5499 16.1352 18.9437C15.9164 19.1012 15.6539 19.1799 15.3477 19.1799C14.9014 19.1799 14.3764 19.0137 13.7989 18.6724L11.2352 17.1499C10.8327 16.9137 10.1677 16.9137 9.76519 17.1499L7.20144 18.6724C6.23019 19.2412 5.39895 19.3374 4.8652 18.9437C4.66395 18.7949 4.5152 18.5937 4.41895 18.3312L15.0589 7.69116C15.4614 7.28866 16.0302 7.10491 16.5814 7.20116L17.4652 7.34991C18.3927 7.50741 19.0139 7.92741 19.2152 8.53991C19.4077 9.15241 19.1452 9.86116 18.4802 10.5262L16.3627 12.6524Z" fill="#222222"/>
</svg>
