<svg width="26" height="26" viewBox="0 0 26 26" fill="none" xmlns="http://www.w3.org/2000/svg">
<path d="M7.58317 8.66666H4.33317C3.1415 8.66666 2.1665 7.69166 2.1665 6.5V4.33333C2.1665 3.14166 3.1415 2.16666 4.33317 2.16666H7.58317C8.77484 2.16666 9.74984 3.14166 9.74984 4.33333V6.5C9.74984 7.69166 8.77484 8.66666 7.58317 8.66666Z" fill="#59A588"/>
<path d="M22.5335 7.58333H18.6335C17.9185 7.58333 17.3335 6.99832 17.3335 6.28332V4.55001C17.3335 3.83501 17.9185 3.25 18.6335 3.25H22.5335C23.2485 3.25 23.8335 3.83501 23.8335 4.55001V6.28332C23.8335 6.99832 23.2485 7.58333 22.5335 7.58333Z" fill="#59A588"/>
<path d="M22.5335 15.7083H18.6335C17.9185 15.7083 17.3335 15.1233 17.3335 14.4083V12.675C17.3335 11.96 17.9185 11.375 18.6335 11.375H22.5335C23.2485 11.375 23.8335 11.96 23.8335 12.675V14.4083C23.8335 15.1233 23.2485 15.7083 22.5335 15.7083Z" fill="#59A588"/>
<path opacity="0.37" d="M17.3333 14.3542C17.7775 14.3542 18.1458 13.9858 18.1458 13.5417C18.1458 13.0975 17.7775 12.7292 17.3333 12.7292H14.3542V6.22916H17.3333C17.7775 6.22916 18.1458 5.86083 18.1458 5.41666C18.1458 4.9725 17.7775 4.60416 17.3333 4.60416H9.75C9.30583 4.60416 8.9375 4.9725 8.9375 5.41666C8.9375 5.86083 9.30583 6.22916 9.75 6.22916H12.7292V19.5C12.7292 21.1467 14.0617 22.4792 15.7083 22.4792H17.3333C17.7775 22.4792 18.1458 22.1108 18.1458 21.6667C18.1458 21.2225 17.7775 20.8542 17.3333 20.8542H15.7083C14.9608 20.8542 14.3542 20.2475 14.3542 19.5V14.3542H17.3333Z" fill="#59A588"/>
<path d="M22.5335 23.8333H18.6335C17.9185 23.8333 17.3335 23.2483 17.3335 22.5333V20.8C17.3335 20.085 17.9185 19.5 18.6335 19.5H22.5335C23.2485 19.5 23.8335 20.085 23.8335 20.8V22.5333C23.8335 23.2483 23.2485 23.8333 22.5335 23.8333Z" fill="#59A588"/>
</svg>
