<svg width="24" height="24" viewBox="0 0 24 24" fill="none" xmlns="http://www.w3.org/2000/svg">
<path opacity="0.4" d="M21.74 9.44H2V6.42C2 3.98 3.98 2 6.42 2H8.75C10.38 2 10.89 2.53 11.54 3.4L12.94 5.26C13.25 5.67 13.29 5.73 13.87 5.73H16.66C19.03 5.72 21.05 7.28 21.74 9.44Z" fill="#39403E"/>
<path d="M21.99 10.84C21.97 10.35 21.89 9.89 21.74 9.44H2V16.65C2 19.6 4.4 22 7.35 22H16.65C19.6 22 22 19.6 22 16.65V11.07C22 11 22 10.91 21.99 10.84ZM14.5 16.25H12.81V18C12.81 18.41 12.47 18.75 12.06 18.75C11.65 18.75 11.31 18.41 11.31 18V16.25H9.5C9.09 16.25 8.75 15.91 8.75 15.5C8.75 15.09 9.09 14.75 9.5 14.75H11.31V13C11.31 12.59 11.65 12.25 12.06 12.25C12.47 12.25 12.81 12.59 12.81 13V14.75H14.5C14.91 14.75 15.25 15.09 15.25 15.5C15.25 15.91 14.91 16.25 14.5 16.25Z" fill="#39403E"/>
</svg>
