<svg width="40" height="40" viewBox="0 0 40 40" fill="none" xmlns="http://www.w3.org/2000/svg">
<path opacity="0.4" d="M20.0002 36.6666C29.2049 36.6666 36.6668 29.2047 36.6668 19.9999C36.6668 10.7952 29.2049 3.33325 20.0002 3.33325C10.7954 3.33325 3.3335 10.7952 3.3335 19.9999C3.3335 29.2047 10.7954 36.6666 20.0002 36.6666Z" fill="#222222"/>
<path d="M25.8334 18.75L17.1834 18.75L20.0501 15.8833C20.5334 15.4 20.5334 14.6 20.0501 14.1167C19.5667 13.6333 18.7667 13.6333 18.2834 14.1167L13.2834 19.1166C12.8001 19.6 12.8001 20.4 13.2834 20.8833L18.2834 25.8833C18.5334 26.1333 18.8501 26.25 19.1667 26.25C19.4834 26.25 19.8001 26.1333 20.0501 25.8833C20.5334 25.4 20.5334 24.6 20.0501 24.1166L17.1834 21.25L25.8334 21.25C26.5167 21.25 27.0834 20.6833 27.0834 20C27.0834 19.3166 26.5167 18.75 25.8334 18.75Z" fill="#222222"/>
</svg>
