<svg width="22" height="18" viewBox="0 0 22 18" fill="none" xmlns="http://www.w3.org/2000/svg">
<path d="M3.79484 17.8617C3.50151 17.8617 3.24818 17.7617 3.03484 17.5617C2.83484 17.3617 2.73484 17.1151 2.73484 16.8217V1.20172C2.73484 0.895051 2.83484 0.648384 3.03484 0.461718C3.24818 0.261718 3.50151 0.161718 3.79484 0.161718H6.65484C6.96151 0.161718 7.19484 0.255051 7.35484 0.441718C7.52818 0.615051 7.61484 0.835051 7.61484 1.10172C7.61484 1.36838 7.52818 1.59505 7.35484 1.78172C7.19484 1.95505 6.96151 2.04172 6.65484 2.04172H5.23484V15.9817H6.65484C6.96151 15.9817 7.19484 16.0684 7.35484 16.2417C7.52818 16.4284 7.61484 16.6551 7.61484 16.9217C7.61484 17.1884 7.52818 17.4084 7.35484 17.5817C7.19484 17.7684 6.96151 17.8617 6.65484 17.8617H3.79484ZM15.3548 17.8617C15.0615 17.8617 14.8282 17.7684 14.6548 17.5817C14.4815 17.4084 14.3948 17.1884 14.3948 16.9217C14.3948 16.6551 14.4815 16.4284 14.6548 16.2417C14.8282 16.0684 15.0615 15.9817 15.3548 15.9817H16.7748V2.04172H15.3548C15.0615 2.04172 14.8282 1.95505 14.6548 1.78172C14.4815 1.59505 14.3948 1.36838 14.3948 1.10172C14.3948 0.835051 14.4815 0.615051 14.6548 0.441718C14.8282 0.255051 15.0615 0.161718 15.3548 0.161718H18.2148C18.5215 0.161718 18.7748 0.261718 18.9748 0.461718C19.1748 0.648384 19.2748 0.895051 19.2748 1.20172V16.8217C19.2748 17.1151 19.1748 17.3617 18.9748 17.5617C18.7748 17.7617 18.5215 17.8617 18.2148 17.8617H15.3548Z" fill="#39403E"/>
</svg>
