<svg width="22" height="18" viewBox="0 0 22 18" fill="none" xmlns="http://www.w3.org/2000/svg">
<path d="M5.23739 16.24C4.78139 16.24 4.38539 16.156 4.04939 15.988C3.72539 15.82 3.47939 15.568 3.31139 15.232C3.14339 14.908 3.05939 14.518 3.05939 14.062V10.57C3.05939 10.078 2.96939 9.724 2.78939 9.508C2.62139 9.28 2.30939 9.16 1.85339 9.148C1.62539 9.136 1.44539 9.046 1.31339 8.878C1.18139 8.71 1.11539 8.506 1.11539 8.266C1.11539 8.026 1.18139 7.828 1.31339 7.672C1.44539 7.504 1.62539 7.414 1.85339 7.402C2.30939 7.378 2.62139 7.258 2.78939 7.042C2.96939 6.814 3.05939 6.46 3.05939 5.98V2.488C3.05939 1.792 3.24539 1.258 3.61739 0.885999C4.00139 0.501999 4.54139 0.309999 5.23739 0.309999H6.51539C6.79139 0.309999 7.01339 0.393999 7.18139 0.561999C7.36139 0.717999 7.45139 0.915999 7.45139 1.156C7.45139 1.396 7.37939 1.6 7.23539 1.768C7.09139 1.924 6.89939 2.002 6.65939 2.002H6.02939C5.78939 2.002 5.60939 2.068 5.48939 2.2C5.36939 2.332 5.30939 2.53 5.30939 2.794V6.25C5.30939 6.622 5.23139 6.964 5.07539 7.276C4.91939 7.588 4.70939 7.84 4.44539 8.032C4.19339 8.224 3.90539 8.32 3.58139 8.32V8.248C3.90539 8.248 4.19339 8.344 4.44539 8.536C4.70939 8.716 4.91939 8.962 5.07539 9.274C5.23139 9.586 5.30939 9.928 5.30939 10.3V13.756C5.30939 14.02 5.36939 14.218 5.48939 14.35C5.60939 14.482 5.78939 14.548 6.02939 14.548H6.65939C6.89939 14.548 7.09139 14.626 7.23539 14.782C7.37939 14.95 7.45139 15.154 7.45139 15.394C7.45139 15.634 7.36139 15.832 7.18139 15.988C7.01339 16.156 6.79139 16.24 6.51539 16.24H5.23739ZM14.4914 16.24C14.2274 16.24 14.0054 16.156 13.8254 15.988C13.6454 15.832 13.5554 15.634 13.5554 15.394C13.5554 15.154 13.6274 14.95 13.7714 14.782C13.9154 14.626 14.1074 14.548 14.3474 14.548H14.9774C15.2174 14.548 15.3974 14.482 15.5174 14.35C15.6374 14.218 15.6974 14.02 15.6974 13.756V10.3C15.6974 9.928 15.7754 9.586 15.9314 9.274C16.0874 8.962 16.2974 8.71 16.5614 8.518C16.8254 8.326 17.1134 8.23 17.4254 8.23V8.302C17.1134 8.302 16.8254 8.212 16.5614 8.032C16.2974 7.84 16.0874 7.588 15.9314 7.276C15.7754 6.964 15.6974 6.622 15.6974 6.25V2.794C15.6974 2.53 15.6374 2.332 15.5174 2.2C15.3974 2.068 15.2174 2.002 14.9774 2.002H14.3474C14.1074 2.002 13.9154 1.924 13.7714 1.768C13.6274 1.6 13.5554 1.396 13.5554 1.156C13.5554 0.915999 13.6454 0.717999 13.8254 0.561999C14.0054 0.393999 14.2274 0.309999 14.4914 0.309999H15.7694C16.2374 0.309999 16.6334 0.393999 16.9574 0.561999C17.2814 0.729999 17.5274 0.975999 17.6954 1.3C17.8634 1.624 17.9474 2.02 17.9474 2.488V5.98C17.9474 6.46 18.0374 6.814 18.2174 7.042C18.3974 7.258 18.7094 7.378 19.1534 7.402C19.3934 7.414 19.5734 7.504 19.6934 7.672C19.8254 7.84 19.8914 8.044 19.8914 8.284C19.8914 8.512 19.8254 8.71 19.6934 8.878C19.5734 9.046 19.3934 9.136 19.1534 9.148C18.7094 9.16 18.3974 9.28 18.2174 9.508C18.0374 9.724 17.9474 10.078 17.9474 10.57V14.062C17.9474 14.758 17.7554 15.292 17.3714 15.664C16.9994 16.048 16.4654 16.24 15.7694 16.24H14.4914Z" fill="#39403E"/>
</svg>
