<svg width="24" height="24" viewBox="0 0 24 24" fill="none" xmlns="http://www.w3.org/2000/svg">
<path opacity="0.4" d="M18.5698 22H13.9998C11.7098 22 10.5698 20.86 10.5698 18.57V11.43C10.5698 9.14 11.7098 8 13.9998 8H18.5698C20.8598 8 21.9998 9.14 21.9998 11.43V18.57C21.9998 20.86 20.8598 22 18.5698 22Z" fill="#39403E"/>
<path d="M13.43 5.43V6.77C10.81 6.98 9.32 8.66 9.32 11.43V16H5.43C3.14 16 2 14.86 2 12.57V5.43C2 3.14 3.14 2 5.43 2H10C12.29 2 13.43 3.14 13.43 5.43Z" fill="#39403E"/>
<path d="M18.1301 14.25H17.2501V13.37C17.2501 12.96 16.9101 12.62 16.5001 12.62C16.0901 12.62 15.7501 12.96 15.7501 13.37V14.25H14.8701C14.4601 14.25 14.1201 14.59 14.1201 15C14.1201 15.41 14.4601 15.75 14.8701 15.75H15.7501V16.63C15.7501 17.04 16.0901 17.38 16.5001 17.38C16.9101 17.38 17.2501 17.04 17.2501 16.63V15.75H18.1301C18.5401 15.75 18.8801 15.41 18.8801 15C18.8801 14.59 18.5401 14.25 18.1301 14.25Z" fill="#39403E"/>
</svg>
