<svg width="21" height="21" viewBox="0 0 21 21" fill="none" xmlns="http://www.w3.org/2000/svg">
<path opacity="0.4" d="M18.375 19.25H2.625C2.26625 19.25 1.96875 18.9525 1.96875 18.5938C1.96875 18.235 2.26625 17.9375 2.625 17.9375H18.375C18.7337 17.9375 19.0312 18.235 19.0312 18.5938C19.0312 18.9525 18.7337 19.25 18.375 19.25Z" fill="#222222"/>
<path opacity="0.4" d="M16.6423 3.04495C14.9448 1.34745 13.2823 1.3037 11.541 3.04495L10.4823 4.1037C10.3948 4.1912 10.3598 4.3312 10.3948 4.4537C11.0598 6.77245 12.9148 8.62745 15.2335 9.29245C15.2685 9.3012 15.3035 9.30995 15.3385 9.30995C15.4348 9.30995 15.5223 9.27495 15.5923 9.20496L16.6423 8.1462C17.5085 7.2887 17.9285 6.45745 17.9285 5.61745C17.9373 4.7512 17.5173 3.9112 16.6423 3.04495Z" fill="#222222"/>
<path d="M13.6588 10.0887C13.405 9.9662 13.16 9.8437 12.9238 9.7037C12.7313 9.58995 12.5475 9.46745 12.3638 9.3362C12.215 9.23995 12.04 9.09995 11.8738 8.95995C11.8563 8.9512 11.795 8.8987 11.725 8.8287C11.4363 8.5837 11.1125 8.2687 10.8238 7.9187C10.7975 7.9012 10.7538 7.83995 10.6925 7.7612C10.605 7.6562 10.4563 7.4812 10.325 7.27995C10.22 7.1487 10.0975 6.9562 9.98378 6.7637C9.84378 6.52745 9.72129 6.2912 9.59879 6.0462C9.47629 5.7837 9.38003 5.52995 9.29253 5.2937L3.79753 10.7887C3.68378 10.9025 3.57878 11.1212 3.55253 11.27L3.08003 14.6212C2.99253 15.2162 3.15878 15.7762 3.52628 16.1524C3.84129 16.4587 4.27878 16.625 4.75128 16.625C4.85628 16.625 4.96128 16.6162 5.06628 16.5987L8.42629 16.1262C8.58379 16.1 8.80254 15.995 8.90754 15.8812L14.4025 10.3862C14.1575 10.2987 13.9213 10.2025 13.6588 10.0887Z" fill="#222222"/>
</svg>
