<svg width="40" height="40" viewBox="0 0 40 40" fill="none" xmlns="http://www.w3.org/2000/svg">
<path opacity="0.4" d="M26.9833 3.3335H13.0166C6.94992 3.3335 3.33325 6.95016 3.33325 13.0168V26.9668C3.33325 33.0502 6.94992 36.6668 13.0166 36.6668H26.9666C33.0333 36.6668 36.6499 33.0502 36.6499 26.9835V13.0168C36.6666 6.95016 33.0499 3.3335 26.9833 3.3335Z" fill="#151B33"/>
<path d="M26.25 16.25H13.75C13.0667 16.25 12.5 15.6833 12.5 15C12.5 14.3167 13.0667 13.75 13.75 13.75H26.25C26.9333 13.75 27.5 14.3167 27.5 15C27.5 15.6833 26.9333 16.25 26.25 16.25Z" fill="#151B33"/>
<path d="M26.25 26.25H13.75C13.0667 26.25 12.5 25.6833 12.5 25C12.5 24.3167 13.0667 23.75 13.75 23.75H26.25C26.9333 23.75 27.5 24.3167 27.5 25C27.5 25.6833 26.9333 26.25 26.25 26.25Z" fill="#151B33"/>
</svg>
