<svg width="50" height="50" viewBox="0 0 50 50" fill="none" xmlns="http://www.w3.org/2000/svg">
<path d="M46.7332 26.4052C46.0197 26.1986 45.3021 26.1791 44.6273 26.3143C40.1777 27.2059 35.7653 26.6265 33.5223 26.1996C32.668 26.0371 32.0248 25.3551 31.8357 24.4893C31.8319 24.4715 31.8279 24.4537 31.8239 24.436C31.6286 23.5727 31.9102 22.6711 32.6102 22.1471C34.3592 20.8378 37.8933 18.5208 42.5714 17.1265C43.6436 16.807 44.6717 16.1731 45.348 14.9364C46.1321 13.5024 46.1337 11.7081 45.2978 10.3048C43.8559 7.88432 40.7234 7.37165 38.6256 9.07985C38.1033 9.50523 37.6946 10.0232 37.4152 10.5963C35.4318 14.6654 32.1773 17.8402 30.4251 19.3627C29.7657 19.9355 28.8472 20.0181 28.0689 19.6308C28.051 19.6219 28.0331 19.613 28.0151 19.6044C27.232 19.2231 26.7251 18.433 26.7576 17.5481C26.8442 15.1876 27.2649 10.5853 29.1204 6.46814C29.4038 5.83938 29.5368 5.12857 29.5035 4.38422C29.4022 2.12445 27.7819 0.317189 25.5829 0.0370233C22.8357 -0.312912 20.4973 1.86432 20.4973 4.59895C20.4973 5.19584 20.6062 5.7671 20.8115 6.28929C22.7863 11.31 23.2117 15.4036 23.2796 17.5351C23.3077 18.419 22.8057 19.2125 22.0219 19.5892C21.9999 19.5998 21.978 19.6104 21.9562 19.6212C21.1687 20.01 20.2406 19.9217 19.5806 19.3358C17.8015 17.7562 14.4785 14.4807 12.5671 10.5575C12.2668 9.94121 11.8059 9.3959 11.2193 8.95959C9.4356 7.63262 7.04863 7.78493 5.4589 9.34791C3.45317 11.32 3.65626 14.5622 5.75912 16.2739C6.28156 16.6992 6.86622 16.9947 7.47672 17.1412C11.7779 18.1734 15.5546 20.7301 17.405 22.1456C18.0968 22.6748 18.3791 23.5688 18.1836 24.4284C18.1785 24.4509 18.1735 24.4735 18.1686 24.4961C17.9809 25.3599 17.3395 26.0403 16.4879 26.2057C14.2279 26.6447 9.76967 27.2464 5.37869 26.3178C4.71301 26.177 4.00284 26.2017 3.29742 26.402C1.15778 27.0096 -0.204829 29.0318 0.0252425 31.2867C0.311237 34.0888 2.90587 35.9226 5.51253 35.3152C6.08264 35.1824 6.60713 34.9513 7.05713 34.6263C11.2753 31.5795 15.2102 30.2221 17.273 29.6688C18.1042 29.4458 18.9643 29.7814 19.4947 30.4718C19.5101 30.4918 19.5255 30.5118 19.5412 30.5316C20.0856 31.2249 20.2066 32.1641 19.7981 32.9487C18.7012 35.0562 16.3376 39.0611 12.9684 41.881C12.4465 42.3178 12.0276 42.8982 11.7414 43.5798C10.8712 45.652 11.5505 47.9942 13.3997 49.227C15.729 50.7799 18.7773 49.8557 19.9432 47.3837C20.2332 46.7691 20.3893 46.1216 20.3893 45.4814C20.3893 41.1352 22.0236 36.6994 22.9698 34.4954C23.3137 33.6943 24.0939 33.1964 24.9506 33.2071C25.0003 33.2077 25.0501 33.208 25.1 33.2077C25.9437 33.2034 26.7059 33.7107 27.0441 34.4998C27.9553 36.626 29.4957 40.8734 29.6206 45.527C29.6394 46.2262 29.8189 46.9332 30.1726 47.5951C31.2431 49.5983 33.4983 50.4903 35.6065 49.7314C38.1849 48.8031 39.3372 45.8348 38.1841 43.3913C37.9303 42.8536 37.5925 42.3836 37.1825 42.0077C33.2774 38.4272 31.1325 34.8537 30.1635 32.9437C29.7702 32.1683 29.9006 31.2417 30.4394 30.5635C30.4632 30.5336 30.4867 30.5034 30.5101 30.4731C31.0412 29.782 31.9028 29.446 32.7347 29.6705C34.7912 30.2255 38.7109 31.5834 42.95 34.6232C43.401 34.9467 43.9245 35.1791 44.4946 35.3119C46.9624 35.8865 49.419 34.2732 49.9162 31.7222C50.3669 29.4089 48.9558 27.0493 46.733 26.4054L46.7332 26.4052Z" fill="#59A588"/>
</svg>
