<?xml version="1.0" encoding="UTF-8"?><svg id="a" xmlns="http://www.w3.org/2000/svg" viewBox="0 0 2139.382 599.108"><defs><style>.b{fill:#fff;}.c{fill:#3f4443;}.d{fill:#51a684;}</style></defs><g><polygon class="c" points="1013.888 211.273 943.794 211.273 820.298 348.297 820.298 116.407 764.435 116.407 764.174 495.861 820.298 495.861 820.298 358.837 939.408 495.861 1014.245 495.861 884.07 353.567 1013.888 211.273"/><rect class="c" x="1066.445" y="115.736" width="55.073" height="380.124"/><path class="c" d="M1948.135,115.341h-55.338v95.932h-54.542v44.27h54.542v128.328c0,15.46,.221,29.293,.66,41.501,.436,12.214,3.732,24.201,9.88,35.972,6.856,13.174,17.042,22.836,30.573,28.984,13.524,6.148,28.892,9.486,46.115,10.01,17.209,.531,34.778-.966,52.702-4.477v-46.639c-18.628,2.637-34.833,3.209-48.623,1.712-13.793-1.487-23.843-7.679-30.168-18.577-3.341-5.801-5.144-12.912-5.407-21.343-.261-8.434-.394-18.359-.394-29.777v-125.694h84.592v-44.27h-84.592V115.341Z"/><rect class="c" x="2084.312" y="115.736" width="55.07" height="380.124"/><path class="c" d="M1643.317,268.059c11.591-8.523,26.432-12.785,44.529-12.785,15.984,0,30.175,4.443,42.556,13.313,12.388,8.873,21.302,21.302,26.749,37.286l54.811-15.81c-7.03-26.882-21.571-48.044-43.611-63.504-22.05-15.463-48.619-23.19-79.715-23.19-28.811,0-53.491,6.41-74.044,19.237-16.498,10.295-29.794,23.881-40.178,40.453l-.156-.193s-6.753,12.861-26.657,17.45c-24.37,3.3-46.407,3.33-65.198,1.885-43.219-6.529-50.418-43.825-51.354-61.541v-9.386h-58.543v148.088c0,16.868-1.888,31.193-5.665,42.957-3.777,11.768-8.961,21.254-15.549,28.46-6.587,7.206-14.272,12.429-23.057,15.678-8.785,3.249-18.097,4.872-27.933,4.872-15.11,0-27.361-3.072-36.755-9.224-9.404-6.144-16.695-14.229-21.874-24.238-5.182-10.016-8.699-20.862-10.54-32.542-1.844-11.684-2.77-23.058-2.77-34.128V211.272h-55.862v158.104c0,8.788,.793,18.972,2.372,30.566,1.582,11.598,4.566,23.455,8.961,35.575,4.386,12.119,10.754,23.319,19.104,33.598,8.339,10.278,19.186,18.579,32.543,24.904,13.343,6.322,29.862,9.486,49.538,9.486,25.65,0,47.52-5.533,65.616-16.603,11.15-6.822,20.506-15.501,28.46-25.629v34.591h51.953v-44.781c.908-3.477,5.917-15.151,31.591-20.461,19.417-3.427,44.274-3.987,74.187,2.643,15.511,3.437,29.94,10.411,41.913,20.849,4.056,3.535,8.455,7.329,13.139,12.299,6.55,6.628,13.623,12.728,21.659,17.852,20.376,13,45.148,19.502,74.309,19.502,30.569,0,56.566-7.42,78.001-22.264,21.431-14.841,36.798-36.143,46.115-63.899l-55.866-13.177c-5.794,15.28-14.191,27.011-25.163,35.176-10.983,8.169-25.341,12.255-43.087,12.255-26,0-45.631-9.046-58.893-27.143-13.265-18.09-19.985-41.808-20.162-71.149,.177-18.967,3.072-35.837,8.699-50.592,5.62-14.759,14.232-26.392,25.827-34.914Zm-192.318,37.367c14.797,2.671,33.227,4.808,54.505,4.808,10.976,0,22.717-.592,35.071-1.943,.347-.004,.697-.007,.84,.038,.626,.184,1.834,1.82-4.181,4.59-10.414,3.409-24.653,5.719-44.632,5.719-19.427,0-32.696-3.81-41.814-9.074-1.306-.963-2.436-2.096-2.307-3.246,.088-.816,1.31-.956,2.517-.892Zm80.75,27.354c-6.999,4.532-16.835,8.125-31.002,9.577-13.776,1.412-23.619-1.851-30.682-7.019-1.034-.976-1.963-2.15-2.004-3.433-.027-.915,.824-1.157,1.684-1.173,10.799,1.888,24.109,2.919,39.198,1.375,7.785-.796,16.045-2.303,24.649-4.699,.249-.03,.497-.058,.599-.02,.466,.156,1.507,1.885-2.443,5.392Zm1.987,67.516c-29.838-5.552-55.382-4.661-76.171-.905-3.708,.088-7.247-.977-7.247-3.117,0-1.3,1.296-2.647,2.667-3.759,16.12-10.289,36.201-11.221,44.029-11.221,17.042,0,30.155,3.631,40.287,9.067l-.024,.034s5.699,3.603,4.78,6.26c-.877,2.538-2.708,4.311-8.322,3.641Z"/></g><path class="d" d="M571.593,316.392c-8.727-2.476-17.504-2.709-25.758-1.089-54.422,10.683-108.39,3.741-135.825-1.374-10.448-1.948-18.316-10.12-20.628-20.494-.047-.213-.096-.426-.145-.638-2.389-10.345,1.056-21.148,9.617-27.427,21.392-15.688,64.618-43.451,121.836-60.157,13.114-3.829,25.688-11.424,33.96-26.243,9.591-17.182,9.61-38.682-.614-55.496-17.636-29.003-55.949-35.146-81.607-14.678-6.389,5.097-11.387,11.303-14.804,18.171-24.26,48.756-64.065,86.797-85.497,105.04-8.064,6.864-19.299,7.853-28.818,3.213-.219-.107-.438-.213-.658-.317-9.578-4.568-15.778-14.035-15.381-24.639,1.059-28.284,6.205-83.429,28.9-132.762,3.466-7.534,5.093-16.051,4.685-24.97-1.239-27.077-21.056-48.732-47.953-52.089-33.6-4.193-62.201,21.895-62.201,54.662,0,7.152,1.331,13.997,3.843,20.254,24.153,60.159,29.356,109.21,30.187,134.75,.344,10.591-5.796,20.098-15.383,24.612-.269,.127-.537,.254-.804,.384-9.631,4.658-20.983,3.6-29.055-3.42-21.761-18.927-62.404-58.175-85.782-105.183-3.673-7.385-9.311-13.919-16.485-19.147-21.817-15.9-51.012-14.075-70.456,4.653-24.532,23.63-22.048,62.479,3.672,82.989,6.39,5.096,13.541,8.637,21.008,10.392,52.608,12.368,98.8,43.003,121.433,59.964,8.461,6.34,11.914,17.053,9.523,27.352-.063,.27-.124,.541-.184,.812-2.296,10.35-10.141,18.503-20.556,20.485-27.642,5.26-82.171,12.469-135.877,1.343-8.142-1.687-16.828-1.391-25.456,1.009-26.17,7.28-42.836,31.511-40.022,58.529,3.498,33.576,35.233,55.549,67.115,48.271,6.973-1.592,13.388-4.361,18.892-8.255,51.592-36.507,99.72-52.772,124.95-59.402,10.167-2.672,20.687,1.349,27.174,9.622,.188,.24,.377,.479,.568,.716,6.659,8.308,8.139,19.561,3.143,28.963-13.417,25.252-42.326,73.24-83.534,107.028-6.384,5.234-11.507,12.189-15.008,20.355-10.643,24.83-2.335,52.895,20.283,67.667,28.49,18.607,65.773,7.533,80.034-22.087,3.546-7.364,5.456-15.123,5.456-22.794,0-52.077,19.989-105.228,31.562-131.637,4.206-9.598,13.749-15.564,24.227-15.436,.608,.007,1.217,.01,1.827,.007,10.32-.051,19.642,6.027,23.778,15.482,11.145,25.477,29.986,76.37,31.514,132.131,.23,8.378,2.425,16.849,6.751,24.78,13.093,24.003,40.677,34.691,66.462,25.597,31.537-11.123,45.63-46.69,31.527-75.968-3.104-6.443-7.236-12.074-12.251-16.579-47.763-42.902-73.997-85.72-85.849-108.606-4.811-9.291-3.216-20.394,3.374-28.52,.291-.359,.579-.72,.865-1.084,6.496-8.281,17.034-12.306,27.209-9.616,25.153,6.65,73.095,22.92,124.943,59.344,5.517,3.876,11.92,6.661,18.893,8.252,30.183,6.885,60.23-12.446,66.311-43.013,5.513-27.718-11.746-55.991-38.934-63.706Z"/><path class="b" d="M581.392,337.87c-2.696-1.955-6.605-4.242-9.18-5.403,0,0-10.865-5.984-29.506-1.554,0,0-18.892,3.472-33.01,4.11,0,0,1.405,6.542,17.976,7.057,15.273,.475,26.975-5.935,41.02,3.802,.49,.362,.952,.713,1.462,1.083,.191,.139,.373,.293,.561,.436,.471,.374,.938,.722,1.415,1.134,7.851,6.678,12.874,16.641,15.904,13.878,4.647-4.237,2.357-18.017-6.643-24.543Z"/><path class="b" d="M544.736,138.609c-1.894-4.674-3.642-8.048-6.09-11.079,0,0-8.412-14.335-29.328-15.642-21.663-1.354-33.236,14.063-33.236,14.063,0,0,12.009-4.987,24.894-4.666,14.756,.368,26.593,12.207,28.378,26.86,1.192,9.787,1.665,18.269,7.599,18.269,10.665,0,12.392-16.437,7.783-27.805Z"/><path class="b" d="M336.667,29.013c-1.564-1.657-13.864-17.164-37.979-13.461-2.21,.339-4.385,.949-6.479,1.733-2.592,.971-6.056,2.519-9.222,4.751,0,0,30.886-3.756,40.193,17.658,0,0,7.852,21.643,17.385,18.788,.304-.015,.609-.085,.916-.275,5.818-3.587,3.48-20.406-4.815-29.195Z"/><path class="b" d="M110.314,129.318c-9.788-5.176-2.627-19.844,7.512-15.395,1.926,.845,7.488,3.231,9.337,4.56,18.592,13.363,7.088,14.06,41.217,59.228,0,0-16.177-4.929-41.275-34.79-4.599-5.472-10.104-10.069-16.423-13.409l-.367-.194Z"/><path class="b" d="M457.24,541.329c-.117-3.196,1.095-16.089-17.835-31.753,0,0-13.808-12.864-21.959-21.655,0,0-4.803,4.056,4.615,16.893,8.681,11.833,20.454,16.888,21.402,33.273,.016,.585,.024,1.144,.046,1.748,.009,.229,0,.459,.002,.688-.004,.576,.01,1.134-.02,1.737-.404,9.89-4.966,19.586-1.083,20.242,5.954,1.006,15.222-10.504,14.831-21.174Z"/></svg>