<svg width="115" height="34" viewBox="0 0 115 34" fill="none" xmlns="http://www.w3.org/2000/svg">
<path d="M21.3567 8.6323H15.5247L5.24968 20.068V0.715027H0.601793L0.580078 32.3833H5.24968V20.9476L15.1598 32.3833H21.3864L10.5556 20.5078L21.3567 8.6323Z" fill="#DFEBE9"/>
<path d="M30.3117 0.658997H25.7295V32.3832H30.3117V0.658997Z" fill="#DFEBE9"/>
<path d="M99.0875 0.626038H94.4833V8.63227H89.9453V12.3269H94.4833V23.0369C94.4833 24.3271 94.5017 25.4816 94.5382 26.5004C94.5745 27.5198 94.8487 28.5202 95.3602 29.5025C95.9307 30.602 96.7782 31.4084 97.904 31.9215C99.0292 32.4346 100.308 32.7132 101.741 32.7569C103.173 32.8012 104.634 32.6763 106.126 32.3832V28.4909C104.576 28.711 103.228 28.7587 102.08 28.6338C100.933 28.5097 100.096 27.9929 99.5702 27.0834C99.2922 26.5992 99.1422 26.0058 99.1203 25.3021C99.0986 24.5983 99.0875 23.7699 99.0875 22.817V12.3269H106.126V8.63227H99.0875V0.626038Z" fill="#DFEBE9"/>
<path d="M115 0.658997H110.418V32.3832H115V0.658997Z" fill="#DFEBE9"/>
<path d="M73.7264 13.3715C74.6907 12.6602 75.9255 12.3045 77.4312 12.3045C78.7611 12.3045 79.9418 12.6753 80.972 13.4156C82.0027 14.1561 82.7443 15.1934 83.1975 16.5274L87.7579 15.2079C87.173 12.9644 85.9631 11.1983 84.1294 9.90803C82.2948 8.61753 80.0842 7.97266 77.497 7.97266C75.0998 7.97266 73.0464 8.50762 71.3364 9.57813C69.9637 10.4373 68.8575 11.5712 67.9935 12.9542L67.9805 12.9381C67.9805 12.9381 67.4187 14.0115 65.7626 14.3945C63.735 14.6699 61.9015 14.6724 60.338 14.5518C56.7422 14.0069 56.1432 10.8942 56.0653 9.41572V8.63239H51.1944V20.9914C51.1944 22.3992 51.0374 23.5947 50.7231 24.5765C50.4089 25.5586 49.9775 26.3503 49.4294 26.9517C48.8814 27.5531 48.242 27.989 47.511 28.2602C46.7801 28.5313 46.0053 28.6668 45.187 28.6668C43.9298 28.6668 42.9105 28.4104 42.1289 27.8969C41.3465 27.3842 40.7398 26.7094 40.3089 25.8741C39.8778 25.0382 39.5852 24.133 39.432 23.1582C39.2786 22.1831 39.2015 21.2339 39.2015 20.31V8.63222H34.5537V21.8272C34.5537 22.5606 34.6197 23.4105 34.7511 24.3781C34.8827 25.3461 35.131 26.3356 35.4966 27.3471C35.8616 28.3585 36.3914 29.2933 37.0861 30.1511C37.7799 31.0089 38.6824 31.7017 39.7937 32.2296C40.9039 32.7572 42.2783 33.0212 43.9154 33.0212C46.0495 33.0212 47.8691 32.5595 49.3747 31.6356C50.3024 31.0662 51.0809 30.3419 51.7427 29.4967V32.3835H56.0652V28.6462C56.1408 28.356 56.5575 27.3818 58.6937 26.9386C60.3092 26.6526 62.3773 26.6059 64.8661 27.1592C66.1567 27.446 67.3572 28.0281 68.3534 28.8992C68.6908 29.1942 69.0568 29.5108 69.4466 29.9256C69.9915 30.4788 70.58 30.9879 71.2486 31.4155C72.9439 32.5005 75.005 33.0431 77.4312 33.0431C79.9746 33.0431 82.1376 32.4238 83.9211 31.185C85.7041 29.9464 86.9827 28.1686 87.7579 25.8522L83.1097 24.7524C82.6277 26.0277 81.929 27.0067 81.0161 27.6881C80.1023 28.3699 78.9077 28.7109 77.4312 28.7109C75.268 28.7109 73.6347 27.9559 72.5312 26.4456C71.4276 24.9359 70.8685 22.9564 70.8537 20.5077C70.8685 18.9248 71.1093 17.5168 71.5775 16.2854C72.0451 15.0537 72.7616 14.0828 73.7264 13.3716V13.3715ZM57.7252 16.4901C58.9563 16.713 60.4897 16.8913 62.2601 16.8913C63.1733 16.8913 64.1502 16.8419 65.1781 16.7292C65.2069 16.7288 65.2361 16.7286 65.2479 16.7323C65.3 16.7477 65.4005 16.8842 64.9001 17.1154C64.0336 17.3999 62.8489 17.5927 61.1866 17.5927C59.5703 17.5927 58.4663 17.2747 57.7076 16.8354C57.599 16.755 57.505 16.6605 57.5157 16.5645C57.523 16.4964 57.6248 16.4847 57.7252 16.4901ZM64.4437 18.773C63.8614 19.1512 63.043 19.4511 61.8643 19.5722C60.7181 19.6901 59.8992 19.4178 59.3115 18.9864C59.2255 18.905 59.1482 18.807 59.1448 18.6999C59.1425 18.6236 59.2133 18.6034 59.2849 18.602C60.1834 18.7596 61.2908 18.8457 62.5462 18.7168C63.1939 18.6504 63.8812 18.5246 64.5971 18.3246C64.6178 18.3221 64.6384 18.3198 64.6469 18.323C64.6857 18.336 64.7724 18.4803 64.4437 18.773ZM64.609 24.4077C62.1265 23.9443 60.0012 24.0187 58.2715 24.3321C57.963 24.3395 57.6685 24.2506 57.6685 24.072C57.6685 23.9635 57.7764 23.8511 57.8904 23.7583C59.2316 22.8996 60.9024 22.8218 61.5537 22.8218C62.9716 22.8218 64.0627 23.1248 64.9057 23.5785L64.9037 23.5814C64.9037 23.5814 65.3778 23.8821 65.3014 24.1038C65.2284 24.3156 65.0761 24.4636 64.609 24.4077Z" fill="#DFEBE9"/>
</svg>
