<svg width="24" height="24" viewBox="0 0 24 24" fill="none" xmlns="http://www.w3.org/2000/svg">
<path d="M3.13 16.7114C3.28 16.8614 3.47 16.9314 3.66 16.9314C3.85 16.9314 4.03999 16.8614 4.17999 16.7214C4.46999 16.4314 4.46999 15.9514 4.17999 15.6614C3.08999 14.5714 2.49001 13.1214 2.49001 11.5914C2.49001 8.41143 5.07001 5.82141 8.24001 5.82141L16.19 5.84143C16.5 5.84143 16.78 5.6514 16.89 5.3714C17 5.0914 17 4.5 16.19 4.3114H8.25C4.25 4.3114 1 7.57142 1 11.5814C1 13.5114 1.76 15.3314 3.13 16.7114Z" fill="#39403E"/>
<path d="M7.30984 19.1613H9.18985L15.2598 19.1814C19.2598 19.1814 22.5098 15.9213 22.5098 11.9113C22.5098 9.98135 21.7498 8.1614 20.3798 6.7814C20.0898 6.4914 19.6099 6.4914 19.3199 6.7814C19.0299 7.0714 19.0299 7.5514 19.3199 7.8414C20.4099 8.9314 21.0098 10.3813 21.0098 11.9113C21.0098 15.0913 18.4298 17.6814 15.2598 17.6814L7.30984 17.6613C6.99984 17.6613 6.71984 17.8514 6.60984 18.1314C6.49984 18.4114 6.49994 18.9999 7.30984 19.1613Z" fill="#39403E"/>
<path opacity="0.4" d="M8.5 15H14.5C16.43 15 18 13.6457 18 12C18 10.3543 16.43 9 14.5 9H8.5C6.57 9 5 10.3543 5 12C5 13.6457 6.57 15 8.5 15Z" fill="#39403E"/>
<path d="M21 3L3 20" stroke="#39403E" stroke-width="1.5" stroke-linecap="round" stroke-linejoin="round"/>
</svg>
