<svg width="27" height="27" viewBox="0 0 27 27" fill="none" xmlns="http://www.w3.org/2000/svg">
<path opacity="0.4" d="M12.9375 23.625C18.84 23.625 23.625 18.84 23.625 12.9375C23.625 7.03496 18.84 2.25 12.9375 2.25C7.03496 2.25 2.25 7.03496 2.25 12.9375C2.25 18.84 7.03496 23.625 12.9375 23.625Z" fill="#39403E"/>
<path d="M23.9624 24.75C23.7599 24.75 23.5574 24.6713 23.4111 24.525L21.3186 22.4325C21.0149 22.1288 21.0149 21.6338 21.3186 21.3188C21.6224 21.015 22.1174 21.015 22.4324 21.3188L24.5249 23.4113C24.8286 23.715 24.8286 24.21 24.5249 24.525C24.3674 24.6713 24.1649 24.75 23.9624 24.75Z" fill="#39403E"/>
</svg>
