<svg width="45" height="45" viewBox="0 0 45 45" fill="none" xmlns="http://www.w3.org/2000/svg">
<ellipse cx="22.4911" cy="22.5" rx="22.4911" ry="22.5" fill="#39403E"/>
<path d="M32.9867 23V20C32.9867 15 30.9875 13 25.9895 13H19.9919C14.9938 13 12.9946 15 12.9946 20V26C12.9946 31 14.9938 33 19.9919 33H22.9907" stroke="#DFEBE9" stroke-width="1.5" stroke-linecap="round" stroke-linejoin="round"/>
<path opacity="0.4" d="M31.9473 28.84L30.3179 29.39C29.8681 29.54 29.5082 29.89 29.3583 30.35L28.8085 31.98C28.3387 33.39 26.3595 33.36 25.9196 31.95L24.0704 26C23.7105 24.82 24.8001 23.72 25.9696 24.09L31.9273 25.94C33.3267 26.38 33.3467 28.37 31.9473 28.84Z" stroke="#DFEBE9" stroke-width="1.5" stroke-linecap="round" stroke-linejoin="round"/>
</svg>
