<svg width="21" height="21" viewBox="0 0 21 21" fill="none" xmlns="http://www.w3.org/2000/svg">
<path opacity="0.4" d="M19.0402 13.93L13.4402 3.85C12.6877 2.49375 11.6464 1.75 10.5002 1.75C9.35391 1.75 8.31266 2.49375 7.56016 3.85L1.96016 13.93C1.25141 15.2162 1.17266 16.45 1.74141 17.4212C2.31016 18.3925 3.43016 18.9262 4.90016 18.9262H16.1002C17.5702 18.9262 18.6902 18.3925 19.2589 17.4212C19.8277 16.45 19.7489 15.2075 19.0402 13.93Z" fill="#222222"/>
<path d="M10.5 12.9062C10.1413 12.9062 9.84375 12.6087 9.84375 12.25V7.875C9.84375 7.51625 10.1413 7.21875 10.5 7.21875C10.8587 7.21875 11.1562 7.51625 11.1562 7.875V12.25C11.1562 12.6087 10.8587 12.9062 10.5 12.9062Z" fill="#222222"/>
<path d="M10.5 15.75C10.4475 15.75 10.3863 15.7412 10.325 15.7325C10.2725 15.7237 10.22 15.7062 10.1675 15.68C10.115 15.6625 10.0625 15.6362 10.01 15.6012C9.96625 15.5662 9.9225 15.5312 9.87875 15.4962C9.72125 15.33 9.625 15.1025 9.625 14.875C9.625 14.6475 9.72125 14.42 9.87875 14.2537C9.9225 14.2187 9.96625 14.1837 10.01 14.1487C10.0625 14.1137 10.115 14.0875 10.1675 14.07C10.22 14.0437 10.2725 14.0262 10.325 14.0175C10.4388 13.9912 10.5612 13.9912 10.6662 14.0175C10.7275 14.0262 10.78 14.0437 10.8325 14.07C10.885 14.0875 10.9375 14.1137 10.99 14.1487C11.0338 14.1837 11.0775 14.2187 11.1213 14.2537C11.2788 14.42 11.375 14.6475 11.375 14.875C11.375 15.1025 11.2788 15.33 11.1213 15.4962C11.0775 15.5312 11.0338 15.5662 10.99 15.6012C10.9375 15.6362 10.885 15.6625 10.8325 15.68C10.78 15.7062 10.7275 15.7237 10.6662 15.7325C10.6137 15.7412 10.5525 15.75 10.5 15.75Z" fill="#222222"/>
</svg>
