<svg width="24" height="24" viewBox="0 0 24 24" fill="none" xmlns="http://www.w3.org/2000/svg">
<path d="M21.0802 8.58003V15.42C21.0802 16.54 20.4802 17.58 19.5102 18.15L13.5702 21.58C12.6002 22.14 11.4002 22.14 10.4202 21.58L4.48016 18.15C3.51016 17.59 2.91016 16.55 2.91016 15.42V8.58003C2.91016 7.46003 3.51016 6.41999 4.48016 5.84999L10.4202 2.42C11.3902 1.86 12.5902 1.86 13.5702 2.42L19.5102 5.84999C20.4802 6.41999 21.0802 7.45003 21.0802 8.58003Z" fill="#ed6c02"/>
<path d="M12 13.75C11.59 13.75 11.25 13.41 11.25 13V7.75C11.25 7.34 11.59 7 12 7C12.41 7 12.75 7.34 12.75 7.75V13C12.75 13.41 12.41 13.75 12 13.75Z" fill="#DFEBE9"/>
<path d="M12 17.25C11.87 17.25 11.74 17.22 11.62 17.17C11.49 17.12 11.39 17.05 11.29 16.96C11.2 16.86 11.13 16.75 11.07 16.63C11.02 16.51 11 16.38 11 16.25C11 15.99 11.1 15.73 11.29 15.54C11.39 15.45 11.49 15.38 11.62 15.33C11.99 15.17 12.43 15.26 12.71 15.54C12.8 15.64 12.87 15.74 12.92 15.87C12.97 15.99 13 16.12 13 16.25C13 16.38 12.97 16.51 12.92 16.63C12.87 16.75 12.8 16.86 12.71 16.96C12.52 17.15 12.27 17.25 12 17.25Z" fill="#DFEBE9"/>
</svg>
